<?xml version="1.0" encoding="utf-8"?><svg xmlns="http://www.w3.org/2000/svg" xmlns:xlink="http://www.w3.org/1999/xlink"><symbol viewBox="0 0 17 15" id="icon1" xmlns="http://www.w3.org/2000/svg"><path d="M15.145 4.324v.438a10.99 10.99 0 01-1.047 4.678c-.698 1.503-1.776 2.776-3.234 3.819-1.459 1.044-3.146 1.565-5.064 1.565-1.854 0-3.53-.527-5.03-1.582.166.023.426.034.78.034 1.563 0 2.927-.505 4.094-1.514a2.93 2.93 0 01-1.906-.69A3.671 3.671 0 012.55 9.304c.146.045.355.067.625.067.313 0 .604-.034.875-.1-.75-.18-1.375-.595-1.875-1.246-.5-.65-.75-1.391-.75-2.221v-.067c.48.29.97.437 1.47.437-.98-.673-1.47-1.65-1.47-2.928 0-.583.157-1.178.47-1.784 1.728 2.334 3.978 3.568 6.75 3.702a3.562 3.562 0 01-.095-.807c0-.965.318-1.795.953-2.49.637-.696 1.413-1.043 2.33-1.043.958 0 1.76.37 2.406 1.11.812-.18 1.51-.46 2.093-.84-.25.83-.729 1.48-1.437 1.95.73-.111 1.354-.302 1.875-.571a7.036 7.036 0 01-1.625 1.85z"/></symbol><symbol viewBox="0 0 512 512" id="icon2" xmlns="http://www.w3.org/2000/svg"><path d="M173.5 508.7v-330c0-3-.2-5.4 4.2-5.4 31.8.2 63.7.1 95.5.1.8 0 1.6.2 2.9.4v41.7c.4.1.7.3 1.1.4 4-5.2 7.8-10.6 12-15.7 12.2-15 27.5-26 45.5-32.6 9.8-3.6 20.5-5.8 30.8-6.3 14.2-.6 28.7-.4 42.7 2 23 3.9 43.3 14.1 60.1 30.8 15.9 15.7 26.4 34.6 32.1 55.9 3 11.3 4.9 22.9 6.7 34.4 1.2 8 1.8 16.2 1.8 24.2.1 65 .1 130 .1 195 0 1.6-.1 3.2-.2 5.3h-5.1c-30.7 0-61.3-.1-92 .1-5.1 0-6-1.7-6-6.3.1-59.8.3-119.7-.1-179.5-.1-10.5-1.1-21.4-3.8-31.5-4.9-17.7-16.1-30.5-33.9-37-15-5.5-30.2-6.5-45.6-2.6-17 4.3-28.7 15.6-37.5 30.5-6.8 11.5-8.1 24.2-8.2 36.9-.4 60.7-.2 121.3-.2 182v7.1c-34.5.1-68.4.1-102.9.1zm-64.4-166.1c0 53.3-.1 106.6.1 159.9 0 4.8-1 6.6-6.3 6.5-30.5-.3-61-.3-91.5 0-5 0-6.1-1.7-6.1-6.3.1-107.1.1-214.3 0-321.4 0-4.3 1.2-5.8 5.6-5.8 30.8.2 61.6.2 92.5 0 4.8 0 5.7 1.8 5.7 6.1v161zM56.1 4.8C89 4 108.7 27.9 108.8 57.2c.1 30-20.9 52.4-53.9 52.3-30.7 0-52.4-22-52.3-53.1.1-29.1 21.2-52.6 53.5-51.6z"/></symbol><symbol viewBox="0 0 512 512" id="icon3" xmlns="http://www.w3.org/2000/svg"><path d="M308.3 508.5c-2.5.1-4.1.3-5.7.3-34.2 0-68.3-.1-102.5.1-4.8 0-6.1-1.3-6.1-6.1.1-79.6.1-159.3.1-238.9V257H139v-85h5.4c15 0 30-.1 45 .1 3.8 0 4.8-1.1 4.8-4.8-.2-22.3-.2-44.7 0-67 .1-15.6 2.6-30.8 9.8-44.9 10.3-19.9 26.6-32.8 47.2-40.8 16.8-6.6 34.5-9 52.3-9.3 29-.4 58-.2 87-.3 2.7 0 4.9-.1 4.9 3.7-.1 27.5-.1 55-.1 82.5 0 .3-.1.6-.5 1.9h-5.5c-18 0-36-.1-54 0-10.4 0-18.8 4.2-24.1 13.3-1.6 2.7-2.6 6.2-2.6 9.4-.3 17 0 34-.2 51 0 4 1.2 5.1 5.1 5.1 25-.2 50-.1 75-.1h7.3c-3.5 28.6-6.9 56.6-10.4 84.9h-77.1v251.8z"/></symbol><symbol viewBox="0 0 39.864 39.864" id="joystick" xmlns="http://www.w3.org/2000/svg"><path d="M39.864 17.596c0-5.793-4.679-10.491-10.463-10.532v-.003H10.464v.003C4.679 7.104 0 11.803 0 17.596c0 .139.015.272.021.411-.009.137-.021.27-.021.41v7.902a6.482 6.482 0 0012.772 1.571 10.548 10.548 0 007.159-5.538 10.55 10.55 0 007.159 5.538 6.483 6.483 0 0012.772-1.571v-7.902c0-.139-.013-.273-.021-.41.007-.136.023-.273.023-.411zm-23.287 1.716h-4.325v4.324h-3.43v-4.324H4.498v-3.43h4.324v-4.324h3.43v4.324h4.324l.001 3.43zm12.749-8.983a2.461 2.461 0 010 4.92 2.46 2.46 0 110-4.92zm-4.81 9.729c-1.356 0-2.459-1.104-2.459-2.461s1.103-2.46 2.459-2.46c1.358 0 2.461 1.103 2.461 2.46s-1.103 2.461-2.461 2.461zm4.81 4.809a2.461 2.461 0 112.46-2.461 2.462 2.462 0 01-2.46 2.461zm4.809-4.809c-1.357 0-2.461-1.104-2.461-2.461s1.104-2.46 2.461-2.46a2.461 2.461 0 010 4.921z"/></symbol></svg>